<?xml version="1.0" encoding="utf-8"?>
<!-- Generator: Adobe Illustrator 27.5.0, SVG Export Plug-In . SVG Version: 6.00 Build 0)  -->
<svg version="1.1" xmlns="http://www.w3.org/2000/svg" xmlns:xlink="http://www.w3.org/1999/xlink" x="0px" y="0px"
	 viewBox="0 0 500 500" style="enable-background:new 0 0 500 500;" xml:space="preserve">
<g id="BACKGROUND">
	<rect style="fill:#FFFFFF;" width="500" height="500"/>
</g>
<g id="OBJECTS">
	<path style="fill:#070D23;" d="M232.703,172.613l-1.279,4.973c0,0-29.972-12.247-31.906-12.247c-1.303,0-5.089,14.763-7.424,24.404
		c-1.239-0.799-2.366-1.365-3.193-1.459c0,0-1.272-7.555-7.566-10.029c-0.711-1.419-1.211-2.304-1.211-2.304
		c1.065-2.131-1.358-4.794-1.358-4.794s0.057-4.633-1.678-7.593c-1.735-2.96-4.539-9.764-4.539-9.764
		c0.382-1.147-0.757-2.547-0.757-2.547c4.885-6.558-4.002-8.982-4.002-8.982l1.908-5.739c1.487,2.413,4.083,4.359,6.395,5.736
		c2.189,1.303,5.019,0.877,6.651-1.079c0.824-0.988,1.931-1.857,3.347-2.062c3.656-0.531,2.182-3.597,2.182-3.597
		c1.71,0.413,1.946-2.948,1.946-2.948c2.359,0.826,5.071-0.649,5.071-0.649l-1.442-7.609c1.502-1.823,2.514-3.693,3.165-5.532
		l10.508,8.708c0.461,0.434,1.19,0.403,1.613-0.069c0.399-0.446,0.381-1.126-0.041-1.55l-10.094-10.118c0,0,1.855-7.52-0.488-13.966
		c-2.344-6.446-18.71-19.378-32.481-12.444c-13.77,6.934-15.276,12.639-14.788,14.886c0.225,1.032,0.343,1.577,0.409,1.879
		c-0.278,0.288-0.614,0.541-0.941,0.747c-2.313,1.452-4.941,2.366-7.188,3.918c-2.247,1.552-4.162,4.027-3.952,6.75
		c1.27-2.518,3.411-4.597,6.281-4.523c-2.198,2.562-3.812,5.351-2.775,8.563c0.281-1.019,0.903-1.942,1.742-2.585
		c-0.061,1.95,0.454,3.888,1.395,5.594c-8.519,1.128-13.706,6.116-16.842,12.121c-6.371-6.398-17.29-12.686-24.551-12.18
		c-1.238,0.086-2.559,0.229-3.934,0.414c1.166-2.318,1.838-4.928,1.838-7.7c0-9.487-7.691-17.179-17.179-17.179
		c-9.487,0-17.178,7.691-17.178,17.179c0,1.636,0.243,3.212,0.67,4.711l-4.954,5.721c0,0,0.979,2.544,6.195,4.606
		c-1.676,0.514-2.668,0.835-2.668,0.835s-3.12,16.254-2.634,27.646l-0.051-0.073c0,0-0.498,16.478,0,19.929
		c0.298,2.067-6.08,22.845-6.08,22.845l1.337,4.866l4.879-0.783c0,0-1.681-4.926-0.558-7.347c1.124-2.42,4.84-16.162,4.408-18.669
		c-0.238-1.38-0.372-6.061-0.445-9.99c5.363,5.775,7.11,11.851,7.412,18.503c0.134,2.954,0.044,9.706,0.322,16.714l-2.425,0.214
		l-0.788-8.906l-5.598,0.495l0.732,8.28c0,0-1.809,1.73,1.59,4.654l1.46,15.577l4.346-0.384l-0.565-6.397l0-0.004l2.482-0.22
		c0.73,4.049,1.837,7.07,3.532,7.823c1.469,0.653,2.297,1.662,2.868,2.873c-0.573,2.345-1.505,5.849-2.249,7.113
		c-1.156,1.965-2.427,4.161-2.427,4.161l0.578,5.592c0,0-1.576,4.488-3.384,6.063l5.772,2.099c0,0,3.382-3.906,3.382-9.62
		c0-4.237,0-5.203,0-5.203l1.854-1.448c0.924,1.177,2.208,2.278,4.08,3.214l6.854,9.345h7.249c-1.437,3.364-3.419,7.197-5.653,9.228
		c0,0,7.22,7.412,11.228,8.647c0,0,2.113,8.521,7.713,10.088c0,0-1.263,2.999,1.479,4.015c0,0,3.238,23.616,5.104,31.044
		c2.233,8.892,1.668,22.612,1.668,22.612s-21.076,20.383-26.029,23.685c-4.954,3.302-17.751,30.754-17.751,30.754
		s-3.579,0.477-4.244,4.354c0,0-4.985,0.665-3.988,5.871l2.999,2.482c-2.774,2.645-6.898,5.806-7.184,6.012
		c-3.201,2.277-5.919,5.258-8.595,8.289c-4.042,6.143,0.017,9.37,0.986,10.028c0.047,0.032,0.095,0.064,0.146,0.087
		c0.039,0.028,0.056,0.036,0.056,0.036c7.806,4.849,14.76,7.198,21.187,12.429c6.425,5.232,13.823,10.37,22.109,10.128
		c1.515-0.043,3.256-0.427,3.929-1.791c0.746-1.527-0.289-3.287-1.322-4.643c-3.597-4.719-7.662-9.135-10.644-14.275
		c-0.265-0.461-0.521-0.939-0.77-1.412c0.444-0.365,0.832-0.808,1.158-1.278c0.682-0.979,1.154-2.197,0.88-3.363
		c-0.269-1.153-1.518-2.124-2.651-1.742c0.909-1.092,1.139-2.617,0.807-3.974c-0.463-1.86-0.878-1.833-0.798-3.528
		c0.025-0.471,0.084-0.973,0.134-1.475h2.261c0,0,4.767-4.682,3.351-9.638c0,0,25.396-30.32,28.653-35.843
		c3.257-5.523,20.66-15.504,21.807-16.815c0.813-0.929,6.726-19.546,10.104-30.317c11.981,18.831,7.857,25.238,7.857,25.238
		c-13.346,36.331-3.735,56.845-3.735,56.845c-2.006,17.053,0,19.627,0,19.627h1.912c-1.315,2.849-2.762,5.559-2.895,5.793
		c-1.643,2.825-2.769,5.96-3.782,9.151c-0.188,0.582-0.366,1.164-0.535,1.755c-0.594,2.757,0.212,4.769,1.356,6.179
		c1.434,1.768,3.622,2.761,5.896,2.869c7.415,0.353,15.056,0.514,22.397,2.44c8.016,2.102,16.876,3.717,24.319,0.066
		c1.36-0.666,2.787-1.736,2.825-3.257c0.057-1.699-1.624-2.872-3.116-3.679c-5.237-2.806-10.756-5.143-15.599-8.588
		c-0.441-0.31-0.864-0.638-1.295-0.967c0.263-0.516,0.432-1.079,0.535-1.643c0.206-1.173,0.141-2.478-0.591-3.426
		c-0.723-0.938-2.262-1.305-3.135-0.488c0.376-1.371-0.047-2.853-0.92-3.952c-1.191-1.502-1.548-1.305-2.177-2.881
		c-0.161-0.405-0.306-0.847-0.456-1.288l1.065-0.384c1.804-4.787-1.852-7.655-3-8.414c0.499-9.617,4.817-58.129,4.817-58.129
		c10.397-18.456,2.956-29.242,3.273-31.939c0.317-2.696-1.427-5.709-1.427-5.709c1.11-6.978-2.196-8.228-2.196-8.228
		c-0.471-6.123-9.891-33.206-9.891-33.206l2.252-0.378c1.202-5.457-3.929-17.433-5.602-23.671l13.913,8.286l17.479-25.773
		c1.009,0.008,2.02,0.002,3.029-0.007c0.704-0.007,1.415-0.014,2.099-0.179c0.936-0.227,1.775-0.738,2.597-1.241
		c0.207-0.127,0.424-0.263,0.544-0.475c0.104-0.183,0.124-0.4,0.141-0.609c0.05-0.592,0.099-1.185,0.149-1.777
		c0.719-0.438,1.438-0.876,2.156-1.314c0.154-0.094,0.309-0.188,0.463-0.282c0.608-0.37,1.217-0.741,1.785-1.17
		c0.572-0.431,1.116-0.941,1.4-1.598c0.373-0.863,0.249-1.847,0.217-2.786c-0.006-0.171-0.007-0.351,0.071-0.503
		c0.075-0.147,0.213-0.249,0.346-0.346c0.435-0.316,0.87-0.632,1.304-0.948c0.218-0.159,0.442-0.323,0.59-0.549
		c0.122-0.186,0.186-0.404,0.245-0.618c0.266-0.971,0.467-1.96,0.601-2.958c0.055-0.411,0.096-0.847-0.079-1.223
		c-0.145-0.31-0.417-0.538-0.686-0.748c-1.102-0.861-2.292-1.61-3.543-2.234c2.206-5.793,6.585-16.837,10.896-25.059
		C243.642,175.738,232.703,172.613,232.703,172.613z M74.686,217.301l-0.65-7.358l2.305-0.204c0.144,2.544,0.349,5.05,0.641,7.359
		L74.686,217.301z M190.627,414.792C190.644,414.89,190.646,414.906,190.627,414.792L190.627,414.792z"/>
	<path style="fill:#070D23;" d="M445.225,434.537l-6.654-2.575c0.295-1.919-2.933-4.175-4.472-5.133l0.823-0.414
		c2.217-2.168-1.133-4.554-1.133-4.554s3.469-2.385-1.735-12.36c-5.204-9.975-12.36-20.383-11.926-22.768
		c0.434-2.385-1.951-17.347-2.385-19.97c-0.434-2.623-4.12-3.976-3.185-14.258c0.935-10.282-9.971-18.228-9.971-21.5
		s-4.206-12.619-4.206-16.203c0-3.583-3.804-16.094-3.804-16.094c0.267-2.139-0.214-4.031-0.972-5.617
		c3.287,0.535,6.132,0.356,6.132,0.356l4.862-5.012l-0.451-4.21l2.105-5.112l-2.934-9.156l1.428,0.046l2.75-1.879
		c3.636-3.902-1.685-23.504-2.271-25.632c-0.586-2.129-0.744-10.2-0.744-10.2c1.774-1.419-0.18-2.761-0.18-2.761
		c1.777-1.946,0-7.785,0-7.785s-1.169-16.569-0.253-20.994c0.915-4.425-0.763-9.765-3.204-14.495
		c-2.441-4.73-2.458-11.291-2.458-11.291c4.103-8.087-0.746-14.8-0.746-14.8c1.678-3.509,0-13.427,0-13.427l-18.881-7.157
		c0,0,5.857-2.239,4.307-6.374c-1.55-4.134-13.092-8.957-13.092-8.957l6.316-15.246c0,0,2.247-0.128,4.044-2.054
		c1.741-1.865,9.686-10.115,1.315-11.04c2.647-4.542,4.79-11.645-0.324-19.449c-5.632-8.593-15.376-11.547-24.404-9.204
		l-11.299,2.167c-1.808,0.347-3.297,1.628-3.909,3.364l-4.109,11.659l-15.246,0.301c-0.555,0.011-1.017,0.43-1.08,0.982
		c-0.068,0.595,0.348,1.137,0.94,1.224l15.854,2.336c0.032,0.277,0.063,0.555,0.129,0.821c0.97,3.915-1.851,8.072-3.694,10.274
		c-0.778,0.93-0.539,2.326,0.485,2.976c0.689,0.437,1.463,0.862,2.144,1.081l-0.353,2.272c0,0-1.938,2.148,0.723,2.827
		c0,0-2.57,1.231-0.758,2.876c0.639,0.58,1.182,1.677,1.616,2.854c1.048,2.842,3.944,4.54,6.935,4.055
		c0.833-0.135,1.727-0.32,2.638-0.531l-0.913,3.227l-21.785,2.994c-3.573,0.794-4.574,5.457-4.574,5.457
		c-0.887,0.352-1.627,0.751-2.266,1.169c-1.421-7.344-4.049-9.664-4.049-9.664l-11.907-4.206c0,0-15.077-19.667-20.578-14.278
		c0,0-18.797,3.892-11.898,24.535c0,0,2.327,5.167-1.677,6.639c-4.003,1.472-2.849,6.99-2.849,6.99l-7.235,12.269l-4.969,12.668
		l0.668,6.225l-0.858,12.429l4.389,0.045l0.577-12.432l-1.601-6.723l2.138-5.19c0.311,5.919,0.773,13.616,1.128,14.844
		l-0.641,10.925l-9.229,2.613l-0.265,25.981l2.645,4.839l3.29,0.034l-1.018,9.351l-0.922,8.001l1.273,8.484l-1.466,10.442
		l2.647,0.027l0.768-10.449l-1.561-9.149l0.786-2.72c0.802,1.063,2.018,1.897,3.889,1.916c0,0-0.532,12.378,3.113,13.227
		c0,0-0.631,11.159,7.825,15.622l-2.584,4.373l-0.054,5.282c0,0,1.465,7.339,1.392,8.285l4.225,0.043l-2.246-8.536l-0.47-4.672
		l1.787-3.891c0.036,0.012,0.07,0.027,0.106,0.04c1.532,0.509,2.954,0.957,4.285,1.361l0.751,6.387l-1.362,9.206l-3.225,11.146
		l4.379,0.045l3.232-10.915l-0.368-10.03l-0.329-4.936c6.014,1.689,9.238,2.17,9.238,2.17l11.467-7.347
		c2.925,7.18,6.348,9.793,6.348,9.793c-4.436,9.34-0.507,52.182-0.507,52.182c-2.707,5.413-1.71,11.111-5.271,23.789
		c-3.561,12.678-5.354,36.632-5.354,36.632c-0.548,0.636-0.412,1.584-0.422,2.424c-0.028,2.545-1.657,4.804-2.058,7.318
		c-0.213,1.34-0.07,2.708,0.074,4.057c0.129,1.203,0.259,2.414,0.601,3.575c0.193,0.655,0.454,1.296,0.534,1.975
		c0.147,1.248-0.331,2.475-0.799,3.64c-0.696,1.733-1.399,3.501-1.531,5.364c-0.209,2.944,1.348,5.941,0.772,8.836
		c-2.405,2.555-0.902,7.215-0.902,7.215c-4.209,3.608-3.608,11.899-3.608,11.899s0.613,0.233,1.613,0.542
		c-0.51,2.444-0.533,5.819-0.409,8.738c0.146,3.427,2.967,6.127,6.397,6.127h46.921l2.086-3.815c0-9.163-13.897-9.505-13.897-9.505
		l-5.623-4.391c1.096-2.291-3.417-6.888-3.417-6.888s1.052-3.608,3.417-6.614c2.365-3.006-1.914-7.065-1.914-7.065
		s5.411-2.255,3.908-6.013c-1.503-3.758,1.804-20.293,1.804-20.293s3.608-9.169,3.307-14.581s2.255-15.182,2.255-15.182
		c4.059-2.255,1.503-5.562,1.503-5.562c2.136-2.27,1.546-8.087,1.387-9.361c0.173-0.002,0.844-0.788,3.221-5.068
		c3.757-6.763,6.338-32.868,6.338-32.868s23.103,35.827,24.394,42.856c1.291,7.029,3.873,8.819,3.873,8.819s2.295,6.674,3.443,17.29
		c1.148,10.616,12.05,21.805,12.337,29.552c0.287,7.747,7.173,12.05,7.173,12.05c-0.861,6.886,1.578,9.181,1.578,9.181
		c-0.717,7.316,2.008,12.05,2.008,12.05c-0.787,2.302,1.575,7.841,2.952,11.781c1.134,3.245,4.625,5.017,7.915,4.022l44.898-13.58
		l0.892-4.255C458.626,430.842,445.225,434.537,445.225,434.537z M386.734,257.942c-0.579,5.791,1.39,11.465,1.39,11.465l2.19,0.07
		l0.109,2.82l-2.096,4.305c-0.828-4.593-4.978-13.236-4.978-13.236L386.734,257.942z"/>
</g>
</svg>
